/* XPM */
static char * xpm_choice_no_xpm[] = {
"12 12 3 1",
" 	c None",
".	c #000000",
"+	c #FFFFFF",
"            ",
"    ....    ",
"  ..++++..  ",
"  .++++++.  ",
" .++++++++. ",
" .++++++++. ",
" .++++++++. ",
" .++++++++. ",
"  .++++++.  ",
"  ..++++..  ",
"    ....    ",
"            "};
